<?xml version="1.0" encoding="iso-8859-1"?>
<!-- Generator: Adobe Illustrator 19.0.0, SVG Export Plug-In . SVG Version: 6.00 Build 0)  -->
<svg xmlns="http://www.w3.org/2000/svg" xmlns:xlink="http://www.w3.org/1999/xlink" version="1.1" id="Capa_1" x="0px" y="0px" viewBox="0 0 512 512" style="enable-background:new 0 0 512 512;" xml:space="preserve" width="512px" height="512px">
<g>
	<g>
		<g>
			<path d="M0,0v512h512V0H0z M480,480H32V160h448V480z M480,128H32V32h448V128z" fill="#576574"/>
			<rect x="64" y="64" width="32" height="32" fill="#576574"/>
			<rect x="128" y="64" width="32" height="32" fill="#576574"/>
			<rect x="192" y="64" width="256" height="32" fill="#576574"/>
			<path d="M240,192H64v128h176V192z M208,288H96v-64h112V288z" fill="#576574"/>
			<path d="M448,192H272v128h176V192z M416,288H304v-64h112V288z" fill="#576574"/>
			<rect x="64" y="352" width="176" height="32" fill="#576574"/>
			<rect x="64" y="416" width="80" height="32" fill="#576574"/>
			<rect x="176" y="416" width="32" height="32" fill="#576574"/>
			<rect x="272" y="352" width="176" height="32" fill="#576574"/>
			<rect x="272" y="416" width="80" height="32" fill="#576574"/>
			<rect x="384" y="416" width="32" height="32" fill="#576574"/>
		</g>
	</g>
</g>
<g>
</g>
<g>
</g>
<g>
</g>
<g>
</g>
<g>
</g>
<g>
</g>
<g>
</g>
<g>
</g>
<g>
</g>
<g>
</g>
<g>
</g>
<g>
</g>
<g>
</g>
<g>
</g>
<g>
</g>
</svg>
