<?xml version="1.0" encoding="iso-8859-1"?>
<!-- Generator: Adobe Illustrator 19.0.0, SVG Export Plug-In . SVG Version: 6.00 Build 0)  -->
<svg version="1.1" id="Capa_1" xmlns="http://www.w3.org/2000/svg" xmlns:xlink="http://www.w3.org/1999/xlink" x="0px" y="0px"
	 viewBox="0 0 512 512" style="enable-background:new 0 0 512 512;" xml:space="preserve">
<g>
	<g>
		<g>
			<path d="M0,0v512h512V0H0z M480,457.376l-41.072-41.072c5.882-9.753,9.016-20.915,9.072-32.304c0-35.346-28.654-64-64-64
				c-35.346,0-64,28.654-64,64c0,35.346,28.654,64,64,64c11.389-0.056,22.551-3.19,32.304-9.072L457.376,480H32V160h448V457.376z
				 M416,384c0,17.673-14.327,32-32,32c-17.673,0-32-14.327-32-32c0-17.673,14.327-32,32-32C401.673,352,416,366.327,416,384z
				 M480,128H32V32h448V128z"/>
			<rect x="64" y="64" width="32" height="32"/>
			<rect x="128" y="64" width="32" height="32"/>
			<rect x="192" y="64" width="256" height="32"/>
			<path d="M288,416H96V288h352v-96H64v256h224V416z M384,224h32v32h-32V224z M96,224h256v32H96V224z"/>
		</g>
	</g>
</g>
<g>
</g>
<g>
</g>
<g>
</g>
<g>
</g>
<g>
</g>
<g>
</g>
<g>
</g>
<g>
</g>
<g>
</g>
<g>
</g>
<g>
</g>
<g>
</g>
<g>
</g>
<g>
</g>
<g>
</g>
</svg>
