<?xml version="1.0" encoding="iso-8859-1"?>
<!-- Generator: Adobe Illustrator 19.0.0, SVG Export Plug-In . SVG Version: 6.00 Build 0)  -->
<svg version="1.1" id="Capa_1" xmlns="http://www.w3.org/2000/svg" xmlns:xlink="http://www.w3.org/1999/xlink" x="0px" y="0px"
	 viewBox="0 0 512 512" style="enable-background:new 0 0 512 512;" xml:space="preserve">
<g>
	<g>
		<circle cx="256" cy="137" r="15"/>
	</g>
</g>
<g>
	<g>
		<circle cx="377" cy="377" r="15"/>
	</g>
</g>
<g>
	<g>
		<path d="M497,422h-15V75c0-8.284-6.716-15-15-15h-45V15c0-8.284-6.716-15-15-15H15C6.716,0,0,6.716,0,15v422
			c0,8.284,6.716,15,15,15h45c0,33.084,26.916,60,60,60h332c33.084,0,60-26.916,60-60v-15C512,428.716,505.284,422,497,422z M75,60
			c-8.284,0-15,6.716-15,15c0,7.137,0,339.52,0,347H30V30h362v30H75z M159.161,423.179C153.778,425.456,150,430.787,150,437v15
			c0,16.542-13.458,30-30,30s-30-13.458-30-30c0-2.854,0-351.918,0-362h362v332H165C162.929,422,160.956,422.42,159.161,423.179z
			 M452,482H171.928c5.123-8.833,8.072-19.175,8.072-30.1h302C482,468.442,468.542,482,452,482z"/>
	</g>
</g>
<g>
	<g>
		<path d="M196,122h-61c-8.284,0-15,6.716-15,15s6.716,15,15,15h61c8.284,0,15-6.716,15-15S204.284,122,196,122z"/>
	</g>
</g>
<g>
	<g>
		<path d="M407,182H135c-8.284,0-15,6.716-15,15s6.716,15,15,15h272c8.284,0,15-6.716,15-15S415.284,182,407,182z"/>
	</g>
</g>
<g>
	<g>
		<path d="M407,242H135c-8.284,0-15,6.716-15,15s6.716,15,15,15h272c8.284,0,15-6.716,15-15S415.284,242,407,242z"/>
	</g>
</g>
<g>
	<g>
		<path d="M407,302H135c-8.284,0-15,6.716-15,15s6.716,15,15,15h272c8.284,0,15-6.716,15-15S415.284,302,407,302z"/>
	</g>
</g>
<g>
	<g>
		<path d="M317,362H135c-8.284,0-15,6.716-15,15s6.716,15,15,15h182c8.284,0,15-6.716,15-15S325.284,362,317,362z"/>
	</g>
</g>
<g>
</g>
<g>
</g>
<g>
</g>
<g>
</g>
<g>
</g>
<g>
</g>
<g>
</g>
<g>
</g>
<g>
</g>
<g>
</g>
<g>
</g>
<g>
</g>
<g>
</g>
<g>
</g>
<g>
</g>
</svg>
