<?xml version="1.0" encoding="iso-8859-1"?>
<!-- Generator: Adobe Illustrator 16.0.0, SVG Export Plug-In . SVG Version: 6.00 Build 0)  -->
<!DOCTYPE svg PUBLIC "-//W3C//DTD SVG 1.1//EN" "http://www.w3.org/Graphics/SVG/1.1/DTD/svg11.dtd">
<svg version="1.1" id="Capa_1" xmlns="http://www.w3.org/2000/svg" xmlns:xlink="http://www.w3.org/1999/xlink" x="0px" y="0px"
	 width="612px" height="612px" viewBox="0 0 612 612" style="enable-background:new 0 0 612 612;" xml:space="preserve">
<g>
	<g>
		<path d="M357.353,41.728H254.647c0,0-32.102,0-32.102,34.772v48.682H30.6c0,0-30.6,0-30.6,31.602v107.49h222.545h27.818v-12.824
			c0-8.374,6.732-14.994,14.994-14.994h81.257c8.401,0,15.022,6.732,15.022,14.994v12.824h27.817H612v-107.49
			c0-31.602-30.6-31.602-30.6-31.602H389.454V76.5C389.454,41.728,357.353,41.728,357.353,41.728z M363.166,125.182H250.669v-56.22
			h112.469v56.22H363.166z"/>
		<path d="M0,539.367c0,30.905,30.6,30.905,30.6,30.905h550.8c0,0,30.6,0,30.6-30.905V292.091H390.178h-28.541v40.643
			c0,8.373-6.704,14.994-14.994,14.994h-81.285c-8.373,0-14.994-6.732-14.994-14.994v-40.643h-27.679H0V539.367z"/>
		<rect x="278.182" y="264.273" width="55.637" height="55.636"/>
	</g>
</g>
<g>
</g>
<g>
</g>
<g>
</g>
<g>
</g>
<g>
</g>
<g>
</g>
<g>
</g>
<g>
</g>
<g>
</g>
<g>
</g>
<g>
</g>
<g>
</g>
<g>
</g>
<g>
</g>
<g>
</g>
</svg>
